<?xml version="1.0" encoding="UTF-8" standalone="no"?>
<!-- Created with Inkscape (http://www.inkscape.org/) -->

<svg
   xmlns:dc="http://purl.org/dc/elements/1.1/"
   xmlns:cc="http://creativecommons.org/ns#"
   xmlns:rdf="http://www.w3.org/1999/02/22-rdf-syntax-ns#"
   xmlns:svg="http://www.w3.org/2000/svg"
   xmlns="http://www.w3.org/2000/svg"
   xmlns:sodipodi="http://sodipodi.sourceforge.net/DTD/sodipodi-0.dtd"
   xmlns:inkscape="http://www.inkscape.org/namespaces/inkscape"
   width="50mm"
   height="50mm"
   viewBox="0 0 177.16535 177.16535"
   id="svg2"
   version="1.1"
   inkscape:version="0.91 r13725"
   sodipodi:docname="logo.svg"
   inkscape:export-filename="D:\Personnel\Projets\BEGES\site\img\logo.png"
   inkscape:export-xdpi="130.048"
   inkscape:export-ydpi="130.048">
  <defs
     id="defs4" />
  <sodipodi:namedview
     id="base"
     pagecolor="#ffffff"
     bordercolor="#666666"
     borderopacity="1.0"
     inkscape:pageopacity="0.0"
     inkscape:pageshadow="2"
     inkscape:zoom="2.8"
     inkscape:cx="-34.968547"
     inkscape:cy="23.016383"
     inkscape:document-units="px"
     inkscape:current-layer="layer1"
     showgrid="false"
     inkscape:window-width="1858"
     inkscape:window-height="1058"
     inkscape:window-x="54"
     inkscape:window-y="-8"
     inkscape:window-maximized="1" />
  <metadata
     id="metadata7">
    <rdf:RDF>
      <cc:Work
         rdf:about="">
        <dc:format>image/svg+xml</dc:format>
        <dc:type
           rdf:resource="http://purl.org/dc/dcmitype/StillImage" />
        <dc:title />
      </cc:Work>
    </rdf:RDF>
  </metadata>
  <g
     inkscape:label="Calque 1"
     inkscape:groupmode="layer"
     id="layer1"
     transform="translate(0,-875.19685)">
    <circle
       style="opacity:1;fill:#362417;fill-opacity:1;fill-rule:nonzero;stroke:none;stroke-width:30;stroke-linecap:round;stroke-miterlimit:4;stroke-dasharray:none;stroke-dashoffset:4.15530014;stroke-opacity:1"
       id="path4136"
       cx="88.582664"
       cy="963.77954"
       r="88.582664" />
    <path
       style="fill:#f1dabf;fill-opacity:1;fill-rule:evenodd;stroke:none;stroke-width:1px;stroke-linecap:butt;stroke-linejoin:miter;stroke-opacity:1"
       d="m 69.037183,916.65355 c -6.832855,0 -12.759258,4.00885 -15.591797,9.78125 l -24.294921,33.6914 c -4.896323,5.40218 -7.890626,12.55545 -7.890625,20.37501 1.9e-5,16.72079 13.683511,30.40439 30.404296,30.40429 15.694297,1e-4 28.710721,-12.0547 30.25,-27.36132 1.844272,1.44451 4.157591,2.31445 6.667969,2.31445 2.511469,0 4.824861,-0.87076 6.669922,-2.31641 1.538381,15.30754 14.555053,27.36338 30.250003,27.36328 16.7208,1e-4 30.40428,-13.6835 30.4043,-30.40429 0,-6.99152 -2.39787,-13.44649 -6.4043,-18.59766 l 0.10352,0 -25.7168,-35.1211 c -2.76132,-5.95927 -8.79029,-10.1289 -15.75976,-10.1289 -5.203,0 -9.880629,2.32971 -13.072275,5.98437 -1.594287,-1.78835 -3.905485,-2.92578 -6.47461,-2.92578 -2.569408,0 -4.880829,1.13708 -6.474609,2.92578 -3.191118,-3.65466 -7.867316,-5.98437 -13.070313,-5.98437 z m -17.373047,45.39648 c 10.261053,0 18.451173,8.19012 18.451172,18.45118 -1.2e-5,10.26104 -8.190128,18.45118 -18.451172,18.45117 -10.261042,1e-5 -18.451159,-8.19013 -18.451171,-18.45117 -10e-7,-10.26106 8.19012,-18.45118 18.451171,-18.45118 z m 73.837894,0 c 10.26105,0 18.45119,8.19012 18.45117,18.45118 -1e-5,10.26105 -8.19013,18.45118 -18.45117,18.45117 -10.26104,1e-5 -18.45116,-8.19012 -18.45117,-18.45117 0,-10.26106 8.19012,-18.45118 18.45117,-18.45118 z m -36.919925,6.36133 c 3.664662,0 6.589844,2.92518 6.589844,6.58984 0,3.66467 -2.925182,6.58985 -6.589844,6.58985 -3.66466,0 -6.589845,-2.92518 -6.589843,-6.58985 -2e-6,-3.66466 2.925183,-6.58984 6.589843,-6.58984 z"
       id="path4180"
       inkscape:connector-curvature="0"
       sodipodi:nodetypes="sccsccsccscccscscssssssssssssssss" />
  </g>
</svg>
